<?xml version="1.0" encoding="UTF-8" standalone="no"?><svg xmlns="http://www.w3.org/2000/svg" xmlns:xlink="http://www.w3.org/1999/xlink" data-name="Layer 1" fill="#000000" height="767.9" preserveAspectRatio="xMidYMid meet" version="1" viewBox="-0.1 -0.6 821.9 767.9" width="821.9" zoomAndPan="magnify"><g fill="#c7b3fc" id="change1_1"><path d="M1014.74,188.81c-0.46-4.58-.94-9.32-3.27-13.4A34.48,34.48,0,0,0,988.85,160c-7.65-1-15.36-.15-22.88,1.33-7.47.77-14.52,3.74-22,4.19-15.61,1.46-30.89,5-46.38,7.36-21.66,2.7-43.08,6.91-64.55,10.85-8.38,2-17,2-25.5,3.5-9.38,2.3-19.09,2.81-28.45,5.19-5.29,1.36-10.88,1.28-16,3.23-0.66,4.87-6.48,5-9.21,8.19a34.42,34.42,0,0,0-8.09,26.23c0.32,10.9,4.89,22.74,14.73,28.37,6.16,3.92,13.62,4,20.62,4.77,8.56-.91,17.16-1.64,25.61-3.35,6.64-1.61,13.51-1.7,20.19-3.11,9.72-2.08,19.64-3,29.39-4.92,6.15-1.39,12.47-1.62,18.71-2.48,7.4-.74,14.62-3.28,22.14-2.62-1.65,3.34-4.89,5.39-7,8.41-4.52,7.59-11.48,13.26-16.87,20.19-8.77,8.9-16.61,18.68-25.62,27.36C840,311.61,831,319.27,823.13,328q-10.66,10.39-21,21.09c-6.21,5.47-11.68,11.71-17.74,17.36-3.23,3.4-7.15,6.07-10.21,9.65-5.51,6.21-12.26,11.12-18.17,16.92-5.92,4.35-10.66,10-16.32,14.69-16.6,13.73-33,27.76-50,41a53.66,53.66,0,0,1-7.61,6.34c-6.51,4-11.39,10.12-18,13.93q-10.37,8.17-20.88,16.16c-6.2,3.63-11.38,8.72-17.54,12.43-4.14,2.39-7.52,5.83-11.41,8.55-7.08,4.11-13.37,9.37-20.23,13.82-5.41,4.5-12.16,6.88-17.62,11.3a186.47,186.47,0,0,1-24,15.21c-4.67,2.63-8.89,6-13.56,8.58-3.93,2.27-8.13,4.2-11.5,7.3-2.79,2.79-6.78,3.7-9.92,6-6.88,5.28-15.09,8.29-22.57,12.55-8.08,5.51-16.81,10-25.48,14.5-10.24,6.58-21.61,11.06-32.25,16.94-6.46,3-12.67,6.59-19,9.83-4.73,3-10.24,4.24-15.15,6.85-7.49,3-14.36,7.42-22.07,9.93-5.75,2.7-11.84,4.62-17.43,7.69-5.31,2.69-11.11,4.19-16.61,6.43-11.55,3-22,9-33.55,12-4.19,1.11-7.94,3.44-12.18,4.38a45,45,0,0,0-9.32,3.14c-8.4,2.65-16.79,5.39-25.11,8.28-10.54,2.76-20.25,8.18-31,10-7.56,2.61-15.6,3.64-22.92,7,0,12.3,0,24.59,0,36.89,16.29-5.1,32.61-10.17,49.25-14.05,14.15-3.69,28.08-8.13,42.2-11.9,13-4.66,26.58-7.65,39.27-13.18,9.94-2.87,19.75-6.16,29.46-9.73,8.76-4,18.27-6,27-10.22A237.88,237.88,0,0,0,427.09,665c4.16-2,8.67-3.11,12.84-5.11,9.22-4.35,19.06-7.26,28.26-11.62,5.85-3.93,12.64-6,18.94-9,8.48-3.88,16.87-7.93,25.43-11.6,10.13-4.91,20-10.33,30.31-14.88,5.93-3.83,12.58-6.28,18.63-9.9,11.6-6.5,23.63-12.24,34.89-19.35A135.67,135.67,0,0,1,613.08,574c10.75-7,21.55-13.92,32.59-20.46,3.21-2,6.21-4.36,9.33-6.53,4.12-3,9.08-4.67,13-8a120.64,120.64,0,0,1,16.56-11.43c8.15-5,14.72-12.12,22.91-17.07,6.84-4.39,12.38-10.44,19.25-14.77,3.09-2.3,6.29-4.45,9.49-6.62s5.31-5.27,8.36-7.47c7.06-4.46,12.47-11.07,19.59-15.46,3.73-2.13,6-6,9.59-8.29,8.26-5.64,14.61-13.56,22.61-19.53,9.21-7.4,17.46-15.89,26.53-23.42,5.69-7,13.45-11.91,19.51-18.57,9-8.3,17.69-17,26.13-25.89,8.22-7.12,15-15.75,23.06-23,5.21-5.12,9.58-11,14.93-16,4.68-4.36,8.22-9.76,13.13-13.89,6.23-6.8,11.79-14.22,18.46-20.62,4.77-4.76,8.81-10.24,13.87-14.68,2.33,12.23,5.54,24.26,7.78,36.5,2.19,7,2.79,14.27,4.9,21.24,1.35,4.9,1.55,10,3.08,14.9,1.75,5.51,2.42,11.29,4,16.85,1.93,7.22,2.44,14.75,4.48,21.94,1.51,5.24,2.5,10.61,4,15.83,1.91,6.39,2,13.15,3.91,19.54,1.59,5,1.74,10.34,3,15.44,1,4.72,4.43,8.33,7.46,11.88,4.09,4.83,10.26,7.27,16.39,8.17,4.79,0.44,9.42-1.83,13-4.85V242.49C1022.89,224.28,1017.32,206.8,1014.74,188.81Z" transform="translate(-202.25 -159.56)"/><path d="M936.44,621c0-64.89-.22-129.78,0-194.67-16.9-.33-33.81.1-50.72-0.23-0.06,109.3.08,218.6-.16,327.91-0.06,57.54.1,115.09-.08,172.64,17,0.07,34.07,0,51.11,0Q936.34,773.83,936.44,621Z" transform="translate(-202.25 -159.56)"/><path d="M782.06,519.36c-3.34-.07-4.9,3.79-4.75,6.64q0,200.4,0,400.82c16.45-.21,32.91,0,49.36-0.16q0.09-203.5,0-407C811.78,519.25,796.92,519.26,782.06,519.36Z" transform="translate(-202.25 -159.56)"/><path d="M667.66,596.31l-1,2.53c-0.35,75,.08,150.08-0.08,225.12-0.11,34.24,0,68.47-.06,102.7q24.93,0.09,49.88,0,0-165.11,0-330.21C700.14,596.19,683.9,596.43,667.66,596.31Z" transform="translate(-202.25 -159.56)"/><path d="M604.51,668.67c-16.37,0-32.75.08-49.11-.06-0.27,23.8-.06,47.61-0.14,71.41-0.13,20.32.3,40.65-.43,61q0,53.51,0,107c-0.22,6.25.74,12.49,0.33,18.76,16.45-.08,32.91,0,49.36,0Q604.35,797.67,604.51,668.67Z" transform="translate(-202.25 -159.56)"/><path d="M480,727.65c-12.47,0-24.94.16-37.41,0-0.64,1.11-1.26,2.22-1.88,3.35q0.06,97.83,0,195.67c16.3,0.19,32.61,0,48.91,0,0-66.06.12-132.12,0-198.18A42.94,42.94,0,0,0,480,727.65Z" transform="translate(-202.25 -159.56)"/><path d="M321.47,763.43q0.09,81.6,0,163.2c16.36,0.17,32.72.06,49.08,0,0.07-54.44-.11-108.88,0-163.32C354.2,763.28,337.83,763.39,321.47,763.43Z" transform="translate(-202.25 -159.56)"/><path d="M202.45,838.43c-0.34,29.43,0,58.87-.2,88.3,16.7-.16,33.41.07,50.12-0.12,0-29.43-.12-58.86,0-88.29C235.76,838.42,219.1,838.18,202.45,838.43Z" transform="translate(-202.25 -159.56)"/></g></svg>